<svg id="visual" viewBox="0 0 900 400" width="900" height="400" xmlns="http://www.w3.org/2000/svg" xmlns:xlink="http://www.w3.org/1999/xlink" version="1.1"><path d="M0 186L15 182.2C30 178.3 60 170.7 90 164C120 157.3 150 151.7 180 147C210 142.3 240 138.7 270 147.5C300 156.3 330 177.7 360 184C390 190.3 420 181.7 450 176.7C480 171.7 510 170.3 540 175.5C570 180.7 600 192.3 630 197.3C660 202.3 690 200.7 720 191.8C750 183 780 167 810 158.7C840 150.3 870 149.7 885 149.3L900 149L900 0L885 0C870 0 840 0 810 0C780 0 750 0 720 0C690 0 660 0 630 0C600 0 570 0 540 0C510 0 480 0 450 0C420 0 390 0 360 0C330 0 300 0 270 0C240 0 210 0 180 0C150 0 120 0 90 0C60 0 30 0 15 0L0 0Z" fill="#3bac56"></path><path d="M0 103L15 109.7C30 116.3 60 129.7 90 136.8C120 144 150 145 180 140.3C210 135.7 240 125.3 270 122.3C300 119.3 330 123.7 360 129.5C390 135.3 420 142.7 450 146.7C480 150.7 510 151.3 540 146C570 140.7 600 129.3 630 127.3C660 125.3 690 132.7 720 133.5C750 134.3 780 128.7 810 123.5C840 118.3 870 113.7 885 111.3L900 109L900 0L885 0C870 0 840 0 810 0C780 0 750 0 720 0C690 0 660 0 630 0C600 0 570 0 540 0C510 0 480 0 450 0C420 0 390 0 360 0C330 0 300 0 270 0C240 0 210 0 180 0C150 0 120 0 90 0C60 0 30 0 15 0L0 0Z" fill="#279651"></path><path d="M0 96L15 94.2C30 92.3 60 88.7 90 91.5C120 94.3 150 103.7 180 101.8C210 100 240 87 270 84.5C300 82 330 90 360 91.5C390 93 420 88 450 81.8C480 75.7 510 68.3 540 69.5C570 70.7 600 80.3 630 83.3C660 86.3 690 82.7 720 80.5C750 78.3 780 77.7 810 83.2C840 88.7 870 100.3 885 106.2L900 112L900 0L885 0C870 0 840 0 810 0C780 0 750 0 720 0C690 0 660 0 630 0C600 0 570 0 540 0C510 0 480 0 450 0C420 0 390 0 360 0C330 0 300 0 270 0C240 0 210 0 180 0C150 0 120 0 90 0C60 0 30 0 15 0L0 0Z" fill="#14804a"></path><path d="M0 67L15 64C30 61 60 55 90 51.7C120 48.3 150 47.7 180 49.3C210 51 240 55 270 55.8C300 56.7 330 54.3 360 55.8C390 57.3 420 62.7 450 63.8C480 65 510 62 540 58C570 54 600 49 630 50.2C660 51.3 690 58.7 720 63C750 67.3 780 68.7 810 66.7C840 64.7 870 59.3 885 56.7L900 54L900 0L885 0C870 0 840 0 810 0C780 0 750 0 720 0C690 0 660 0 630 0C600 0 570 0 540 0C510 0 480 0 450 0C420 0 390 0 360 0C330 0 300 0 270 0C240 0 210 0 180 0C150 0 120 0 90 0C60 0 30 0 15 0L0 0Z" fill="#026b42"></path></svg>