<svg id="visual" viewBox="0 0 900 400" width="900" height="400" xmlns="http://www.w3.org/2000/svg" xmlns:xlink="http://www.w3.org/1999/xlink" version="1.1"><path d="M0 212L15 215.8C30 219.7 60 227.3 90 234C120 240.7 150 246.3 180 251C210 255.7 240 259.3 270 250.5C300 241.7 330 220.3 360 214C390 207.7 420 216.3 450 221.3C480 226.3 510 227.7 540 222.5C570 217.3 600 205.7 630 200.7C660 195.7 690 197.3 720 206.2C750 215 780 231 810 239.3C840 247.7 870 248.3 885 248.7L900 249L900 401L885 401C870 401 840 401 810 401C780 401 750 401 720 401C690 401 660 401 630 401C600 401 570 401 540 401C510 401 480 401 450 401C420 401 390 401 360 401C330 401 300 401 270 401C240 401 210 401 180 401C150 401 120 401 90 401C60 401 30 401 15 401L0 401Z" fill="#3bac56"></path><path d="M0 295L15 288.3C30 281.7 60 268.3 90 261.2C120 254 150 253 180 257.7C210 262.3 240 272.7 270 275.7C300 278.7 330 274.3 360 268.5C390 262.7 420 255.3 450 251.3C480 247.3 510 246.7 540 252C570 257.3 600 268.7 630 270.7C660 272.7 690 265.3 720 264.5C750 263.7 780 269.3 810 274.5C840 279.7 870 284.3 885 286.7L900 289L900 401L885 401C870 401 840 401 810 401C780 401 750 401 720 401C690 401 660 401 630 401C600 401 570 401 540 401C510 401 480 401 450 401C420 401 390 401 360 401C330 401 300 401 270 401C240 401 210 401 180 401C150 401 120 401 90 401C60 401 30 401 15 401L0 401Z" fill="#279651"></path><path d="M0 302L15 303.8C30 305.7 60 309.3 90 306.5C120 303.7 150 294.3 180 296.2C210 298 240 311 270 313.5C300 316 330 308 360 306.5C390 305 420 310 450 316.2C480 322.3 510 329.7 540 328.5C570 327.3 600 317.7 630 314.7C660 311.7 690 315.3 720 317.5C750 319.7 780 320.3 810 314.8C840 309.3 870 297.7 885 291.8L900 286L900 401L885 401C870 401 840 401 810 401C780 401 750 401 720 401C690 401 660 401 630 401C600 401 570 401 540 401C510 401 480 401 450 401C420 401 390 401 360 401C330 401 300 401 270 401C240 401 210 401 180 401C150 401 120 401 90 401C60 401 30 401 15 401L0 401Z" fill="#14804a"></path><path d="M0 331L15 334C30 337 60 343 90 346.3C120 349.7 150 350.3 180 348.7C210 347 240 343 270 342.2C300 341.3 330 343.7 360 342.2C390 340.7 420 335.3 450 334.2C480 333 510 336 540 340C570 344 600 349 630 347.8C660 346.7 690 339.3 720 335C750 330.7 780 329.3 810 331.3C840 333.3 870 338.7 885 341.3L900 344L900 401L885 401C870 401 840 401 810 401C780 401 750 401 720 401C690 401 660 401 630 401C600 401 570 401 540 401C510 401 480 401 450 401C420 401 390 401 360 401C330 401 300 401 270 401C240 401 210 401 180 401C150 401 120 401 90 401C60 401 30 401 15 401L0 401Z" fill="#026b42"></path></svg>